<?xml version="1.0" encoding="utf-8"?>
<!-- Generator: Adobe Illustrator 16.0.0, SVG Export Plug-In . SVG Version: 6.00 Build 0)  -->
<!DOCTYPE svg PUBLIC "-//W3C//DTD SVG 1.1//EN" "http://www.w3.org/Graphics/SVG/1.1/DTD/svg11.dtd">
<svg version="1.1" id="圖層_1" xmlns="http://www.w3.org/2000/svg" xmlns:xlink="http://www.w3.org/1999/xlink" x="0px" y="0px"
	 width="600px" height="450px" viewBox="0 0 600 450" enable-background="new 0 0 600 450" xml:space="preserve">
<path fill="#496AA5" d="M176.916,223.19c0,0-100.214-23.554-90.458-68.799c9.756-45.246,118.72,50.029,118.72,50.029
	S156.566,91.813,84.703,83.408c-71.865-8.403-89.658,64.53-48.258,107.124C77.844,233.127,176.916,223.19,176.916,223.19"/>
<path fill="#1198AC" d="M172.746,148.265c0,0,129.264,150.252,231.891,106.499c102.628-43.753,48.851-117.305-42.558-109.375
	c-91.41,7.93-162.412-9.636-180.317-25.103c0,0,106.785,10.684,199.024-12.409c92.24-23.093,247.58-4.967,193.594,135.438
	C520.393,383.719,250.928,363.389,172.746,148.265"/>
<path fill="#545251" d="M27.167,284.822c0.076,0,0.114-0.039,0.114-0.152v-20.852l-2.777-0.113c0-0.572,0-1.219,0.037-1.752h5.518
	c4.337,6.469,9.436,14.117,13.622,20.549l0.19-0.039c-0.038-6.203-0.076-12.441-0.152-18.645l-3.577-0.076
	c0-0.572,0.038-1.219,0.038-1.789h4.719h3.653c0.037,0.533,0,1.18,0,1.752l-2.322,0.113c-0.076,0-0.114,0.037-0.114,0.152
	l-0.114,22.563c-0.494,0.229-1.332,0.42-2.016,0.42c-3.958-5.441-9.209-13.014-14.156-20.473h-0.228
	c0,6.127-0.038,12.215-0.038,18.342l3.768,0.076c0,0.57,0,1.217-0.039,1.789h-4.985c-1.255,0-2.587,0.037-3.614,0.037
	c0-0.57,0-1.219,0.038-1.787L27.167,284.822z"/>
<path fill="#545251" d="M60.05,284.822c0.114,0,0.152-0.076,0.152-0.152v-20.852c-3.273,0-4.071,0.076-4.947,0.152
	c-0.722,0.074-0.875,0.305-0.95,0.723l-0.609,3.689c-0.686-0.076-1.447-0.113-2.131-0.189c0.151-2.092,0.228-4.223,0.38-6.279
	c0.723,0,1.979,0.039,3.501,0.039h6.469h6.43c1.56-0.039,2.473-0.039,3.311-0.039c0.114,2.057,0.227,4.15,0.304,6.242
	c-0.647,0.076-1.408,0.15-2.131,0.227l-0.609-3.729c-0.038-0.418-0.228-0.646-0.913-0.684c-1.028-0.115-1.712-0.115-4.985-0.115
	l-0.114,20.967l3.501,0.115c0,0.531-0.039,1.217-0.039,1.787c-1.369,0-3.233-0.037-4.794-0.037c-1.598,0-3.348,0.037-4.947,0.037
	c0-0.609,0-1.219,0.039-1.787L60.05,284.822z"/>
<path fill="#545251" d="M77.749,284.822c0.076,0,0.152-0.076,0.152-0.152v-20.852l-2.701-0.113c-0.038-0.572,0-1.182,0.038-1.752
	h4.337h4.68c0,0.57,0,1.18-0.037,1.789l-3.121,0.076c-0.075,0-0.114,0.076-0.114,0.152l-0.038,8.789
	c0,0.076,0.038,0.113,0.191,0.113l12.214,0.039v-9.094l-3.234-0.076c0-0.572,0-1.219,0.038-1.789h4.756h4.11
	c0,0.533,0,1.18-0.039,1.752l-2.435,0.113c-0.076,0-0.114,0.076-0.114,0.152l-0.076,20.852l2.815,0.115
	c0,0.531-0.037,1.178-0.037,1.75h-4.376c-1.521,0-3.234,0.037-4.604,0.037c0-0.57,0.038-1.219,0.038-1.787l2.968-0.115
	c0.114,0,0.19-0.076,0.19-0.152v-9.74c0-0.115-0.076-0.152-0.19-0.152l-12.215,0.037l-0.038,10.008l3.387,0.115
	c0,0.531,0,1.217-0.039,1.787c-1.369,0-3.158-0.037-4.755-0.037c-1.408,0-3.006,0.037-4.262,0.037c0-0.57,0-1.219,0.038-1.787
	L77.749,284.822z"/>
<path fill="#545251" d="M108.006,276.375c-0.038,3.729,0.533,5.287,1.56,6.619c0.686,0.914,1.941,2.018,4.528,2.018
	c2.435,0,3.539-0.875,4.414-1.75c0.913-0.951,1.826-3.195,1.826-6.697c0-3.652,0.039-8.713,0-12.594
	c0-0.076-0.037-0.152-0.152-0.152l-3.196-0.076c0-0.572,0-1.219,0.038-1.789h4.414h3.957c0.038,0.533,0,1.18-0.038,1.789
	l-2.397,0.113l-0.076,12.748c-0.038,4.146-1.294,6.658-2.702,8.104c-1.065,1.143-3.12,2.359-6.202,2.359
	c-2.664,0-4.909-0.646-6.506-2.207c-2.169-2.131-2.512-4.717-2.512-8.182v-12.633c0-0.15-0.038-0.227-0.19-0.227l-2.321-0.076
	c0-0.609,0-1.219,0.037-1.789h4.111h4.87c0,0.533,0,1.18-0.076,1.789l-3.349,0.076L108.006,276.375z"/>
<path fill="#545251" d="M24.58,309.377c0-0.57,0-1.18,0.038-1.75h4.718h4.452c0.038,0.531,0,1.219-0.038,1.75l-3.006,0.115
	c-0.076,0-0.076,0.076-0.076,0.152l-0.114,20.852l3.272,0.113c0,0.533,0,1.219-0.038,1.789c-1.294,0-3.044-0.039-4.566-0.039
	c-1.484,0-3.196,0.039-4.566,0.039c0-0.57,0-1.217,0.038-1.789l2.74-0.113c0.076,0,0.152-0.039,0.152-0.152v-20.852L24.58,309.377z"
	/>
<path fill="#545251" d="M40.222,329.545c-2.093-2.131-3.348-5.289-3.348-9.322c0-4.91,2.397-8.828,5.289-10.846
	c2.245-1.521,4.566-2.129,7.192-2.129c2.32,0,4.489,0.57,6.354,1.9c2.778,1.941,4.68,5.707,4.68,10.084
	c0,3.957-1.293,7.799-3.996,10.426c-1.978,1.941-4.489,3.084-8.256,3.084C44.79,332.742,42.125,331.484,40.222,329.545
	 M54.339,328.479c1.484-1.713,2.777-4.223,2.777-8.447c0-3.5-0.875-6.506-2.739-8.521c-1.446-1.637-3.234-2.361-5.517-2.361
	c-2.094,0-3.92,0.686-5.366,1.98c-1.788,1.598-3.348,4.564-3.348,8.828c0,3.766,0.761,6.391,2.778,8.521
	c1.522,1.635,3.576,2.359,5.745,2.359C50.952,330.838,52.969,330.039,54.339,328.479"/>
<path fill="#545251" d="M66.294,330.496c0.076,0,0.114-0.039,0.114-0.152v-20.852l-2.777-0.115c0-0.57,0-1.217,0.037-1.75h5.518
	c4.337,6.469,9.436,14.117,13.622,20.547l0.19-0.037c-0.038-6.203-0.076-12.441-0.152-18.645l-3.577-0.076
	c0-0.572,0.038-1.219,0.038-1.789h4.719h3.653c0.037,0.533,0,1.18,0,1.75l-2.322,0.115c-0.076,0-0.114,0.037-0.114,0.152
	l-0.114,22.564c-0.494,0.229-1.332,0.418-2.016,0.418c-3.958-5.441-9.209-13.014-14.156-20.473h-0.228
	c0,6.127-0.038,12.215-0.038,18.342l3.768,0.076c0,0.57,0,1.217-0.039,1.789h-4.985c-1.255,0-2.587,0.037-3.614,0.037
	c0-0.57,0-1.219,0.038-1.789L66.294,330.496z"/>
<path fill="#545251" d="M104.367,309.252c2.66-2.205,5.966-2.889,8.625-2.889c2.09,0,3.914,0.381,4.863,0.799
	c0.152,2.127,0.266,4.293,0.342,6.459c-0.646,0.076-1.405,0.152-2.127,0.227l-0.646-4.102c-0.037-0.305-0.152-0.494-0.304-0.57
	c-0.836-0.533-1.862-0.684-3.116-0.684c-2.127,0-4.33,0.721-6.002,2.432c-2.129,2.127-3.42,5.09-3.42,8.662
	c0,3.268,0.57,5.395,2.355,7.447c1.406,1.596,3.875,2.582,6.383,2.582c2.242,0,4.939-0.797,6.726-1.596
	c0.151,0.609,0.342,1.33,0.456,1.939c-2.888,1.178-5.51,1.861-7.751,1.861c-2.584,0-5.243-0.684-7.333-2.279
	c-2.432-1.9-4.027-5.168-4.027-9.043C99.39,315.178,101.632,311.531,104.367,309.252z"/>
<path fill="#545251" d="M130.776,330.109c-2.773,1.445-4.179,1.711-5.509,1.711c-1.9,0-4.332-1.559-4.332-3.725
	c0-2.127,2.355-5.129,7.409-5.129c1.329,0.039,2.241,0.039,2.622,0.039c0.113-4.027-0.836-5.623-3.154-5.623
	c-1.596,0-3.268,1.102-4.559,2.506c-0.418-0.416-0.912-0.949-1.33-1.443c1.634-1.596,3.762-3.344,6.763-3.344
	c2.812,0,5.091,1.939,5.091,6.156c0,1.785-0.037,6.383-0.075,7.979c0,0.379,0.114,0.57,0.342,0.57l2.546-0.076
	c0.037,0.455,0.037,1.064,0,1.596c-0.494,0.152-2.66,0.494-4.369,0.494c-0.381-0.342-0.76-0.951-1.254-1.711H130.776z
	 M126.558,329.807c1.102,0,2.773-0.533,4.218-1.559c0.114-0.037,0.114-0.113,0.114-0.303c0-0.723,0-2.205,0-3.23
	c-0.19-0.037-0.988-0.076-2.09-0.076c-3.382,0-4.75,1.406-4.75,3.115C124.05,328.971,125.077,329.807,126.558,329.807z"/>
<path fill="#545251" d="M138.035,317.686c0-0.494,0.039-1.102,0.039-1.557c1.52-0.229,4.977-0.988,5.242-0.988
	c0.076,0,0.115,0.037,0.115,0.113c0.113,0.646,0.228,1.369,0.303,2.053l0.152,0.037c3.609-2.127,4.408-2.242,5.699-2.242
	c2.128,0,3.496,1.672,4.065,2.547h0.114c3.647-2.318,4.559-2.471,6.079-2.471c2.128,0,3.419,1.52,4.027,2.471
	c0.532,0.873,0.798,1.824,0.798,2.887c0,2.813-0.076,6.232-0.114,9.156l2.432,0.076c0,0.533,0,1.141-0.038,1.672
	c-1.14,0-2.621,0-3.913,0s-2.546,0.039-3.609,0.039c0-0.533,0-1.141,0.038-1.672l2.166-0.115c0.076,0,0.113-0.113,0.113-0.15
	c0-2.547,0.038-5.473,0.038-7.523c0-1.293-0.075-2.318-0.456-3.154c-0.531-1.102-1.52-1.48-2.584-1.48
	c-1.405,0-3.191,0.986-4.521,1.975c0.039,2.889-0.037,7.066-0.037,10.297l2.584,0.113c0,0.533,0,1.141-0.039,1.672
	c-1.254,0-2.773,0-4.217,0c-1.178,0-2.47,0.039-3.457,0.039c0-0.57,0-1.141,0.037-1.672l2.128-0.152
	c0.076,0,0.114-0.076,0.114-0.152c0.037-2.508,0.037-5.395,0.037-7.75c0-1.445,0-2.318-0.455-3.154
	c-0.607-1.064-1.52-1.291-2.394-1.291c-1.254,0-3.192,0.873-4.636,2.051c-0.076,3.23-0.076,7.066-0.113,10.297l2.697,0.113
	c0,0.533,0,1.141-0.038,1.672c-1.216,0-2.735,0-4.179,0c-1.179,0-2.623,0.039-3.725,0.039c0-0.57,0.039-1.178,0.039-1.711
	l2.241-0.113c0.075,0,0.151-0.076,0.151-0.152l-0.037-11.74L138.035,317.686z"/>
<path fill="#545251" d="M168.853,338.432l2.204-0.152c0.075,0,0.151-0.076,0.151-0.229v-20.289l-2.887-0.037
	c0-0.494,0-1.064,0.037-1.52c1.482-0.268,4.978-1.141,5.244-1.141c0.076,0,0.076,0.037,0.076,0.076
	c0.113,0.646,0.228,1.406,0.303,2.014l0.19,0.037c3.762-1.938,4.331-2.09,5.927-2.09c3.838,0,6.156,3.914,6.117,7.258
	c0,1.824-0.228,3.229-0.912,4.674c-0.607,1.404-1.367,2.582-3.001,3.686c-0.836,0.568-2.507,1.102-4.218,1.102
	c-1.633,0-2.811-0.342-3.875-0.875l-0.152,0.076c0.039,2.129,0,5.168,0,7.258l3.533,0.076c0,0.531,0,1.102-0.037,1.672
	c-1.443,0-3.268,0-4.939,0c-1.254,0-2.66,0.037-3.799,0.037C168.816,339.533,168.816,338.963,168.853,338.432z M182.303,319.357
	c-0.646-1.139-1.862-1.938-3.306-1.938c-1.406,0-3.191,0.607-4.787,1.785c-0.038,2.85-0.076,6.193-0.076,8.854
	c0,0.836,1.977,1.938,3.838,1.938c1.14,0,2.394-0.381,3.305-1.291c1.141-1.178,1.824-2.889,1.824-5.396
	C183.101,321.904,182.912,320.574,182.303,319.357z"/>
</svg>
